<svg width="1238" height="814" viewBox="0 0 1238 814" fill="none" xmlns="http://www.w3.org/2000/svg">
<path d="M350.469 5.21484L439.824 283.047L634.648 21.8164C641.159 13.0273 646.042 7.33073 649.297 4.72656C652.552 2.1224 657.435 0.820312 663.945 0.820312C670.456 0.820312 678.757 7.81901 688.848 21.8164L870.488 280.117L958.379 5.21484H1237.68L982.793 764.98C971.725 797.533 953.008 813.809 926.641 813.809C900.273 813.809 876.673 798.835 855.84 768.887L637.578 453.945L402.715 769.863C381.556 797.858 357.956 811.855 331.914 811.855C305.872 811.855 286.829 795.579 274.785 763.027L0.371094 5.21484H350.469Z" fill="#EF4444" fill-opacity="0.85"/>
</svg>
